<?xml version="1.0" standalone="no"?>
<!DOCTYPE svg PUBLIC "-//W3C//DTD SVG 1.1//EN" "http://www.w3.org/Graphics/SVG/1.1/DTD/svg11.dtd" >
<svg xmlns="http://www.w3.org/2000/svg">
<metadata>Generated by IcoMoon</metadata>
<defs>
<font id="icomoon" horiz-adv-x="1024">
<font-face units-per-em="1024" ascent="960" descent="-64" />
<missing-glyph horiz-adv-x="1024" />
<glyph unicode="&#x20;" horiz-adv-x="512" d="" />
<glyph unicode="&#xe900;" glyph-name="accounting" d="M876 96.39c-81.606 0-148 66.394-148 148v347.999c8.154 196.39 287.923 196.237 296 0v-347.999c0-81.606-66.394-148-148-148zM876 660.39c-37.498 0-68-30.504-68-68v-347.999c3.744-90.234 132.288-90.163 136 0v347.999c0 37.496-30.502 68-68 68zM148 96.39c-81.608 0-148 66.394-148 148v107.999c8.154 196.39 287.92 196.238 296 0v-107.999c0-81.606-66.392-148-148-148zM148 420.39c-37.496 0-68-30.504-68-68v-107.999c3.746-90.234 132.288-90.163 136 0v107.999c0 37.496-30.504 68-68 68zM512 96.39c-81.608 0-148 66.394-148 148v567.999c8.154 196.39 287.923 196.238 296 0v-567.999c0-81.606-66.392-148-148-148zM512 880.39c-37.496 0-68-30.504-68-68v-567.999c3.746-90.234 132.288-90.163 136 0v567.999c0 37.496-30.504 68-68 68zM1024-23.61c0 22.093-17.907 40-40 40h-944c-53.072-2.112-53.032-77.907 0-80h944c22.093 0 40 17.907 40 40z" />
<glyph unicode="&#xe901;" glyph-name="calendar" d="M306 318.003c0-27.616-22.386-50.003-50-50.003-66.324 2.637-66.306 97.376 0 100 27.614 0 50-22.386 50-49.997zM428 368c-27.614 0-50-22.386-50-49.997 2.634-66.33 97.376-66.31 100 0 0 27.611-22.386 49.997-50 49.997zM600 368c-27.614 0-50-22.386-50-49.997 2.634-66.33 97.373-66.31 99.997 0 0 27.611-22.383 49.997-49.997 49.997zM256 196c-27.614 0-50-22.387-50-50.003 2.634-66.323 97.376-66.304 100 0 0 27.616-22.386 50.003-50 50.003zM428 196c-27.614 0-50-22.387-50-50.003 2.634-66.323 97.376-66.304 100 0 0 27.616-22.386 50.003-50 50.003zM600 196c-27.614 0-50-22.387-50-50.003 2.634-66.323 97.373-66.304 99.997 0 0 27.616-22.383 50.003-49.997 50.003zM772 196c-27.616 0-50.003-22.387-50.003-50.003 2.637-66.323 97.376-66.304 100.006 0 0 27.616-22.387 50.003-50.003 50.003zM1024 504v-328c0-132.333-107.667-240-240-240h-544c-132.336 0-240 107.667-240 240v328c0 132.336 107.664 240 240 240h544c132.333 0 240-107.664 240-240zM944 504c0 88.224-71.776 160-160 160h-544c-88.224 0-160-71.776-160-160v-328c0-88.224 71.776-160 160-160h544c88.224 0 160 71.776 160 160v328zM824 524h-624c-53.072-2.112-53.032-77.906 0-80h624c53.069 2.112 53.030 77.906 0 80zM404 840c0-22.092-17.908-40-40-40s-40 17.908-40 40c0 22.056-17.944 40-40 40s-40-17.944-40-40c0-22.092-17.908-40-40-40s-40 17.908-40 40c6.596 159.202 233.434 159.144 240 0zM744 960c-66.17 0-120-53.832-120-120 0-22.092 17.907-40 40-40s40 17.908 40 40c0 22.056 17.946 40 40 40s40-17.944 40-40c0-22.092 17.907-40 40-40s40 17.908 40 40c0 66.168-53.83 120-120 120zM772 368c-27.616 0-50.003-22.386-50.003-49.997 2.637-66.33 97.376-66.31 100.006 0 0 27.611-22.387 49.997-50.003 49.997z" />
<glyph unicode="&#xe902;" glyph-name="contracts" d="M678.003 169.997h-338.003c-22.092 0-40 17.914-40 40 0 22.093 17.908 40 40 40h338.003c22.086 0 40-17.907 40-40 0-22.086-17.914-40-40-40zM718.003 364c0 22.092-17.914 40-40 40h-78.003c-22.092 0-40-17.908-40-40s17.908-40 40-40h78.003c22.086 0 40 17.908 40 40zM936 176v544c0 132.336-107.667 240-240 240h-368c-132.336 0-240-107.664-240-240v-544c0-132.333 107.664-240 240-240h368c132.333 0 240 107.667 240 240zM696 880c88.224 0 160-71.776 160-160v-544c0-88.224-71.776-160-160-160h-368c-88.224 0-160 71.776-160 160v544c0 88.224 71.776 160 160 160h368zM728 764c0 22.092-17.907 40-40 40s-40-17.908-40-40c0-33.084-26.916-60-60-60h-152c-33.084 0-60 26.916-60 60 0 22.092-17.908 40-40 40s-40-17.908-40-40c0-77.196 62.804-140 140-140h152c77.197 0 140 62.804 140 140zM451.6 347.954l76.804 77.468c15.554 15.688 15.446 41.014-0.244 56.568-15.686 15.552-41.012 15.446-56.568-0.244l-76.806-77.468c-0.364-0.368-0.82-0.366-1.184 0l-37.2 37.522c-15.554 15.69-40.88 15.798-56.568 0.244s-15.796-40.88-0.244-56.568l37.2-37.522c15.315-15.446 35.7-23.954 57.404-23.954 21.708 0 42.094 8.506 57.406 23.954z" />
<glyph unicode="&#xe903;" glyph-name="customers" d="M526.679 438.061c24.869 20.865 44.817 46.672 58.488 75.669s20.748 60.506 20.747 92.387c0 59.908-24.553 117.362-68.257 159.723s-102.98 66.159-164.787 66.159c-61.807 0-121.082-23.798-164.787-66.159s-68.257-99.815-68.257-159.723c0-31.882 7.076-63.39 20.747-92.387s33.619-54.804 58.488-75.669c-65.246-28.637-120.602-74.882-159.449-133.204s-59.543-126.259-59.612-195.68c0-11.981 4.911-23.475 13.651-31.949 8.741-8.467 20.596-13.229 32.957-13.229s24.216 4.762 32.957 13.229c8.741 8.474 13.651 19.968 13.651 31.949 0 71.891 29.464 140.832 81.908 191.667 52.445 50.833 123.576 79.391 197.744 79.391s145.299-28.558 197.744-79.391c52.445-50.835 81.911-119.776 81.911-191.667 0-11.981 4.909-23.475 13.651-31.949 8.736-8.467 20.595-13.229 32.954-13.229 12.365 0 24.218 4.762 32.96 13.229 8.742 8.474 13.651 19.968 13.651 31.949-0.070 69.421-20.768 137.357-59.61 195.68-38.848 58.322-94.207 104.567-159.452 133.204v0zM372.87 470.588c-27.655 0-54.689 7.949-77.683 22.841s-40.916 36.059-51.5 60.824c-10.583 24.765-13.352 52.015-7.956 78.305s18.712 50.439 38.268 69.393c19.555 18.954 44.47 31.862 71.593 37.091s55.238 2.546 80.788-7.712c25.55-10.258 47.388-27.629 62.752-49.917s23.565-48.491 23.565-75.296c0-35.945-14.732-70.417-40.954-95.834s-61.788-39.696-98.872-39.696zM826.842 456.132c29.824 32.557 49.312 72.777 56.102 115.817 6.797 43.041 0.614 87.067-17.805 126.781s-48.282 73.421-86.003 97.065c-37.722 23.644-81.69 36.217-126.611 36.205-12.365 0-24.219-4.76-32.96-13.232s-13.651-19.963-13.651-31.944c0-11.981 4.911-23.473 13.651-31.945s20.595-13.231 32.96-13.231c37.082 0 72.646-14.279 98.867-39.696 26.227-25.417 40.954-59.889 40.954-95.834-0.064-23.729-6.554-47.025-18.822-67.558s-29.888-37.585-51.085-49.45c-6.912-3.863-12.685-9.381-16.768-16.026-4.077-6.644-6.33-14.193-6.541-21.923-0.192-7.669 1.632-15.26 5.299-22.058s9.062-12.577 15.674-16.794l18.182-11.746 6.054-3.162c56.186-25.828 103.584-66.68 136.614-117.741 33.030-51.066 50.317-110.214 49.824-170.483 0-11.981 4.909-23.475 13.651-31.949 8.742-8.467 20.595-13.229 32.954-13.229 12.365 0 24.218 4.762 32.96 13.229 8.742 8.474 13.651 19.968 13.651 31.949 0.384 69.325-17.53 137.594-52.038 198.323-34.509 60.723-84.461 111.889-145.114 148.631v0z" />
<glyph unicode="&#xe904;" glyph-name="dots" d="M512 618.667c46.933 0 85.333 38.4 85.333 85.333s-38.4 85.333-85.333 85.333c-46.933 0-85.333-38.4-85.333-85.333s38.4-85.333 85.333-85.333zM512 533.333c-46.933 0-85.333-38.4-85.333-85.333s38.4-85.333 85.333-85.333c46.933 0 85.333 38.4 85.333 85.333s-38.4 85.333-85.333 85.333zM512 277.333c-46.933 0-85.333-38.4-85.333-85.333s38.4-85.333 85.333-85.333c46.933 0 85.333 38.4 85.333 85.333s-38.4 85.333-85.333 85.333z" />
<glyph unicode="&#xe905;" glyph-name="chat" d="M854 256.667v512h-684v-598l86 86h598zM854 852.667q34 0 59-25t25-59v-512q0-34-25-60t-59-26h-598l-170-170v768q0 34 25 59t59 25h684z" />
<glyph unicode="&#xe906;" glyph-name="home" d="M753.778-35.556h-483.556c-117.632 0-213.333 101.695-213.333 226.702v317.889c0 70.259 31.387 137.644 83.957 180.254l241.778 195.961c76.176 61.74 182.576 61.74 258.753 0l76.846-62.229v48.221c1.877 50.131 69.251 50.093 71.111 0v-124.517c0-14.363-7.663-27.484-19.78-33.859-12.112-6.374-26.578-4.897-37.325 3.806l-133.967 108.481c-50.794 41.169-121.731 41.169-172.514 0.010l-241.778-195.961c-35.045-28.403-55.97-73.326-55.97-120.168v-317.889c0-83.337 63.801-151.137 142.222-151.137h483.556c78.421 0 142.222 67.8 142.222 151.137v317.889c0 47.416-20.69 92.491-55.342 120.579-15.61 12.656-18.614 36.365-6.707 52.955 11.913 16.593 34.224 19.783 49.835 7.128 52.173-42.287 83.325-109.825 83.325-180.662v-317.889c0-125.008-95.704-226.702-213.333-226.702zM440.889 495.299c-24.546 0-44.444-21.146-44.444-47.229 2.348-62.665 86.562-62.614 88.889 0 0 26.086-19.899 47.229-44.444 47.229zM627.553 448.072c-2.346-62.661-86.559-62.616-88.886 0 2.348 62.663 86.562 62.614 88.886 0zM485.333 296.937c-2.348-62.663-86.562-62.612-88.889 0 2.348 62.663 86.562 62.618 88.889 0zM627.553 296.937c-2.346-62.663-86.559-62.612-88.886 0 2.348 62.663 86.562 62.618 88.886 0z" />
<glyph unicode="&#xe907;" glyph-name="invoices" d="M989.408 496.908c-22.426 21.278-52.902 32.574-83.514 30.94-21.85-1.149-42.861-8.804-60.87-22.21l-235.724-176.653c-0.090-0.068-0.18-0.136-0.27-0.204-57.128-43.577-136.934-43.577-194.062 0-0.090 0.068-0.18 0.136-0.269 0.204l-235.827 176.732c-17.908 13.328-38.92 20.98-60.768 22.13-30.61 1.616-61.086-9.661-83.514-30.94-22.306-21.16-34.59-49.94-34.59-81.036v-239.87c0-132.333 107.664-240 240-240h544c132.333 0 240 107.667 240 240v239.87c0 31.096-12.282 59.876-34.592 81.038zM944 176c0-88.224-71.776-160-160-160h-544c-88.224 0-160 71.776-160 160v239.87c0 11.444 5.248 18.824 9.65 23 6.092 5.78 14.466 9.128 22.676 9.128 0.524 0 1.048-0.014 1.571-0.042 6.13-0.324 11.922-2.482 17.104-6.338l235.588-176.549c85.64-65.216 205.184-65.216 290.826 0l235.482 176.469c5.286 3.936 11.078 6.094 17.203 6.418 8.749 0.442 17.766-2.94 24.25-9.088 4.403-4.176 9.651-11.556 9.651-23v-239.868zM100 646v74c0 132.336 107.664 240 240 240h348c132.333 0 240-107.664 240-240v-74c0-22.092-17.907-40-40-40s-40 17.908-40 40v74c0 88.224-71.776 160-160 160h-348c-88.224 0-160-71.776-160-160v-74c0-22.092-17.908-40-40-40s-40 17.908-40 40zM475 434v5.214c-16.305 3.306-34.47 8.338-52.776 15.614-20.53 8.16-30.556 31.416-22.396 51.946 8.162 20.528 31.424 30.552 51.948 22.396 31.31-12.444 59.864-15.17 68.224-15.17 11.028 0 20 8.972 20 20 0 11.214-11.86 20-27 20-64.989 0-113.999 42.99-113.999 100 0 46.868 32.416 86.29 76 97.068v2.932c0 22.092 17.908 40 40 40s40-17.908 40-40v-7.36c10.278-2.71 21.679-6.376 34.498-11.36 20.589-8.006 30.79-31.188 22.782-51.778s-31.196-30.79-51.779-22.782c-30.012 11.672-47.293 13.28-61.501 13.28-11.028 0-20-8.972-20-20 0-11.402 14.618-20 33.999-20 60 0 107-43.924 107-100 0-42.83-27.074-79.446-65-93.664v-6.336c0-22.092-17.908-40-40-40s-40 17.908-40 40v0z" />
<glyph unicode="&#xe908;" glyph-name="notifications" d="M682 212.667v256q0 82-46 137t-124 55-124-55-46-137v-256h340zM768 256.667l86-86v-42h-684v42l86 86v212q0 100 51 174t141 96v30q0 26 18 45t46 19 46-19 18-45v-30q90-22 141-96t51-174v-212zM512 0.667q-34 0-60 25t-26 59h172q0-34-26-59t-60-25z" />
<glyph unicode="&#xe909;" glyph-name="down" d="M225.835 524.502l256-256c16.683-16.683 43.691-16.683 60.331 0l256 256c16.683 16.683 16.683 43.691 0 60.331s-43.691 16.683-60.331 0l-225.835-225.835-225.835 225.835c-16.683 16.683-43.691 16.683-60.331 0s-16.683-43.691 0-60.331z" />
<glyph unicode="&#xe90a;" glyph-name="projects" d="M547.697 405.846c19.508 19.536 19.526 51.146 0.041 70.604s-51.096 19.395-70.604-0.14c-19.508-19.535-19.526-51.146-0.041-70.604s51.096-19.395 70.604 0.14zM783.469-64.032h-542.936c-132.078 0-239.532 107.45-239.532 239.533v287.436c0 132.078 107.454 239.532 239.532 239.532h542.936c132.083 0 239.533-107.454 239.533-239.532v-287.436c0-132.083-107.45-239.533-239.533-239.533zM240.532 622.625c-88.052 0-159.688-71.636-159.688-159.688v-287.436c0-88.058 71.636-159.693 159.688-159.693h542.936c88.058 0 159.693 71.635 159.693 159.693v287.436c0 88.052-71.635 159.688-159.693 159.688h-542.936zM609.818 205.472h-195.618c-119.972 0-217.575 97.6-217.575 217.575 0 22.049 17.873 39.922 39.922 39.922s39.922-17.873 39.922-39.922c0-75.946 61.785-137.729 137.731-137.729h195.618c75.948 0 137.734 61.782 137.734 137.729 0 22.049 17.869 39.922 39.917 39.922s39.923-17.873 39.923-39.922c0-119.975-97.6-217.575-217.574-217.575zM661.715 782.347c-22.052 0-39.925 17.873-39.925 39.922 0 31.918-25.967 57.887-57.887 57.887h-103.797c-31.92 0-57.887-25.969-57.887-57.887 0-22.049-17.873-39.922-39.922-39.922s-39.922 17.873-39.922 39.922c0 75.946 61.786 137.731 137.731 137.731h103.797c75.946 0 137.729-61.785 137.729-137.731 0-22.049-17.869-39.922-39.917-39.922z" />
<glyph unicode="&#xe90b;" glyph-name="proposals" d="M584.063-64h-344c-132.336 0-240 107.667-240 240v584c0 110.28 89.72 200 200 200 0 0 692.744-0.070 694.081-0.206 73.299-3.134 129.843-61.696 129.843-135.898v-51.386c0-54.16-28.787-103.136-75.123-127.814-19.494-10.387-43.725-3-54.112 16.502-10.381 19.498-2.995 43.722 16.506 54.108 20.186 10.752 32.73 32.672 32.73 57.206v51.384c-2.291 79.956-119.136 69.78-119.93-3.896v-644c0.006-132.333-107.661-240-239.995-240zM200.063 880c-66.168 0-120-53.832-120-120v-584c0-88.224 71.776-160 160-160h344c88.225 0 160.001 71.776 160.001 160v644c0 21.188 4.691 41.558 13.594 60h-557.595zM664.064 740c0 22.092-17.907 40-40.001 40h-424c-53.072-2.112-53.032-77.906 0-80h424c22.088 0 40.001 17.908 40.001 40zM664.064 580c0 22.092-17.907 40-40.001 40h-132c-53.072-2.112-53.032-77.906 0-80h132c22.088 0 40.001 17.908 40.001 40zM372.063 580c0 22.092-17.908 40-40 40h-132c-53.072-2.112-53.032-77.906 0-80h132c22.090 0 40 17.908 40 40zM489.807 95.994c-11.932 0-23.926 2.842-35.036 8.608l-40.71 21.12-40.71-21.12c-25.786-13.382-56.354-11.034-79.776 6.118-23.164 16.966-34.508 45.011-29.61 73.197l7.652 44.032-32.516 31.277c-20.794 20.006-28.23 49.44-19.404 76.831 8.886 27.574 32.316 47.27 61.148 51.404l45.378 6.506 20.196 40.382c26.992 55.256 108.3 55.238 135.28 0l20.196-40.382 45.378-6.506c28.832-4.134 52.262-23.832 61.148-51.404 8.826-27.384 1.392-56.824-19.404-76.831l-32.516-31.277 7.652-44.032c4.898-28.179-6.448-56.23-29.61-73.197-13.326-9.76-28.974-14.726-44.736-14.726zM302.049 309.677l26.97-25.939c17.968-17.286 26.156-42.221 21.9-66.714l-6.484-37.299 34.67 17.984c21.886 11.36 48.022 11.354 69.91 0l34.67-17.984-6.484 37.299c-4.256 24.493 3.93 49.427 21.9 66.714l26.97 25.939-37.774 5.414c-24.556 3.52-45.81 18.807-56.852 40.887l-17.386 34.762-17.386-34.762c-11.042-22.080-32.296-37.367-56.854-40.887l-37.77-5.414z" />
<glyph unicode="&#xe90c;" glyph-name="reports" d="M784.006-63.974h-543.986c-132.332 0-239.994 107.661-239.994 239.994v239.995c-1.586 92.666 67.42 178.849 157.996 195.993v107.999c0 132.332 107.661 239.994 239.994 239.994h385.99c132.333 0 239.994-107.661 239.994-239.994v-543.987c0-132.333-107.661-239.994-239.994-239.994v0zM158.023 529.195c-45.911-16.319-77.998-60.236-77.998-113.179v-239.997c0-88.218 71.774-159.994 159.996-159.994h543.986c88.224 0 159.994 71.776 159.994 159.994v543.989c0 88.221-71.77 159.996-159.994 159.996h-385.99c-88.221 0-159.996-71.774-159.996-159.996v-551.989c-2.111-53.069-77.904-53.030-79.997 0v361.176zM864.006 702.006c0 22.092-17.907 39.999-40 39.999h-465.988c-53.071-2.112-53.031-77.904 0-79.998h465.988c22.093 0 40 17.907 40 39.999zM866.003 328.016c0 22.092-17.907 39.999-40 39.999h-155.994c-53.071-2.111-53.030-77.903 0-79.996h155.994c22.093 0 40 17.907 40 39.997zM552.013 328.016c0 22.092-17.908 39.999-39.999 39.999h-153.996c-53.071-2.111-53.031-77.903 0-79.996h153.996c22.091 0 39.999 17.907 39.999 39.997zM552.013 168.019c0 22.093-17.908 40-39.999 40h-153.996c-53.071-2.112-53.031-77.907 0-80h153.996c22.091 0 39.999 17.907 39.999 40zM784.006 168.019c0 22.093-17.907 40-40 40h-73.997c-53.071-2.112-53.030-77.907 0-80h73.997c22.093 0 40 17.907 40 40zM826.003 448.013h-289.99c-53.071 2.112-53.031 77.904 0 79.998h289.99c53.075-2.112 53.030-77.904 0-79.998zM318.019 492.012c0-27.613 22.385-49.999 49.999-49.999 66.323 2.634 66.305 97.373 0 99.997-27.613 0-49.999-22.384-49.999-49.999z" />
<glyph unicode="&#xe90d;" glyph-name="right" d="M678.4 460.8l-365.619 379.904c-13.722 13.824-13.722 36.198 0 50.125 13.722 13.824 35.891 13.824 49.613 0l400.896-404.89c13.722-13.875 13.722-36.301 0-50.125l-400.896-404.89c-13.722-13.875-35.891-13.824-49.613 0-13.722 13.773-13.722 36.198 0 50.125l365.619 379.75z" />
<glyph unicode="&#xe90e;" glyph-name="tasks" d="M544-64h-304c-132.336 0-240 107.667-240 240v544c0 132.336 107.664 240 240 240h544c132.333 0 240-107.664 240-240v-118c-2.112-53.072-77.907-53.032-80 0v118c0 88.224-71.776 160-160 160h-544c-88.224 0-160-71.776-160-160v-544c0-88.224 71.776-160 160-160h304c53.072-2.112 53.032-77.907 0-80zM844 684c0 22.092-17.907 40-40 40h-414c-53.072-2.112-53.032-77.906 0-80h414c22.093 0 40 17.908 40 40zM474 448c0 22.092-17.908 40-40 40h-44c-53.072-2.112-53.032-77.906 0-80h44c22.092 0 40 17.908 40 40zM1024 209.011c0 41.024-23.379 77.754-58.477 95.917l-11.808 75.424c-8.307 58.614-40.87 110.664-89.37 142.84-67.795 46.076-166.682 46.074-234.474 0-48.502-32.182-81.064-84.239-89.37-142.861l-11.83-76.273c-97.806-53.235-60.436-202.982 51.236-204.058h336.182c59.501 0 107.91 48.902 107.91 109.011zM820.122 456.532c29.523-19.588 49.357-51.524 54.419-87.616 0.026-0.212 0.058-0.422 0.090-0.634l15.482-98.9c2.586-16.531 15.187-29.702 31.584-33.018 33.171-7.731 27.29-55.155-5.606-56.365h-336.182c-32.524 1.19-38.804 47.718-6.294 56.198 15.958 3.661 28.074 16.672 30.584 32.851l15.4 99.288c0.030 0.192 0.058 0.386 0.086 0.58 5.058 36.092 24.892 68.026 54.415 87.616 20.563 13.64 47.174 21.466 73.011 21.466 25.83 0 52.442-7.826 73.011-21.468v0zM812 288c0 22.093-17.907 40-40 40h-53.997c-53.075-2.112-53.037-77.907 0-80h53.997c22.093 0 40 17.907 40 40zM750.067-64c-50.97 0-93.837 37.53-99.725 87.302-2.592 21.939 13.088 41.83 35.027 44.422 21.946 2.592 41.83-13.088 44.422-35.027 3.104-22.125 37.459-22.112 40.55-0.006 2.592 21.939 22.515 37.626 44.416 35.034 21.939-2.592 37.626-22.477 35.034-44.416-5.882-49.773-48.755-87.309-99.725-87.309zM230 732c-27.614 0-50-22.386-50-50 2.642-66.34 97.384-66.29 100 0 0 27.614-22.386 50-50 50zM230 498c-27.614 0-50-22.386-50-50 2.642-66.34 97.384-66.29 100 0 0 27.614-22.386 50-50 50zM230 262.003c-27.614 0-50-22.387-50-50.003 2.642-66.342 97.384-66.291 100 0 0 27.616-22.386 50.003-50 50.003z" />
<glyph unicode="&#xe90f;" glyph-name="timer" d="M514.847 366.328h60.445c16.692 0 30.223 13.53 30.223 30.222s-13.531 30.223-30.223 30.223h-30.223v30.223c0 16.692-13.53 30.223-30.223 30.223s-30.222-13.53-30.222-30.223v-60.445c0-16.69 13.53-30.222 30.222-30.222zM686.47 702.412c35.347 35.35 92.87 35.35 128.218 0 35.43-35.432 35.43-92.792-0.006-128.228-11.808-11.802-11.808-30.939-0.006-42.74s30.938-11.805 42.746-0.002c59.053 59.050 59.072 154.649 0.006 213.713-58.912 58.919-154.784 58.919-213.702 0-11.801-11.802-11.801-30.939 0-42.741 11.802-11.805 30.938-11.805 42.746-0.001zM215.036 531.423c11.804 11.804 11.802 30.939-0.002 42.741-35.433 35.43-35.439 92.785 0 128.222 35.352 35.35 92.879 35.344 128.238-0.018 11.803-11.802 30.939-11.802 42.74 0 11.804 11.804 11.804 30.939 0 42.741-58.925 58.929-154.8 58.938-213.718 0.019-59.055-59.056-59.066-154.646 0-213.707 11.804-11.802 30.941-11.8 42.741 0.001v0zM242.875 396.552c0-149.985 122.021-272.001 272.004-272.001 149.985 0 272.001 122.016 272.001 272.001 0 139.767-105.965 255.231-241.779 270.315v31.911c0 16.692-13.53 30.222-30.222 30.222s-30.223-13.53-30.223-30.222v-31.911c-135.811-15.082-241.781-130.548-241.781-270.315zM726.438 396.552c0-116.654-94.907-211.56-211.56-211.56s-211.558 94.906-211.558 211.56c0 116.653 94.905 211.558 211.558 211.558s211.56-94.903 211.56-211.558zM264.811 132.314l-15.312-19.142c-10.427-13.030-8.314-32.051 4.719-42.477 13.003-10.4 32.027-8.346 42.479 4.717l15.312 19.142c10.427 13.030 8.314 32.051-4.719 42.477s-32.052 8.314-42.479-4.717zM722.406 137.030c-13.037-10.426-15.149-29.446-4.723-42.477l15.315-19.142c10.458-13.075 29.485-15.117 42.477-4.717 13.037 10.426 15.149 29.446 4.723 42.477l-15.315 19.142c-10.426 13.030-29.44 15.142-42.477 4.717z" />
<glyph unicode="&#xe910;" glyph-name="plus" d="M213.333 384h256v-256c0-23.552 19.115-42.667 42.667-42.667s42.667 19.115 42.667 42.667v256h256c23.552 0 42.667 19.115 42.667 42.667s-19.115 42.667-42.667 42.667h-256v256c0 23.552-19.115 42.667-42.667 42.667s-42.667-19.115-42.667-42.667v-256h-256c-23.552 0-42.667-19.115-42.667-42.667s19.115-42.667 42.667-42.667z" />
<glyph unicode="&#xe911;" glyph-name="play" d="M236.416 846.55c-6.528 4.267-14.507 6.784-23.083 6.784-23.552 0-42.667-19.115-42.667-42.667v-768c-0.043-7.765 2.133-15.872 6.784-23.083 12.757-19.84 39.125-25.557 58.965-12.8l597.333 384c4.864 3.072 9.344 7.424 12.8 12.8 12.757 19.84 6.997 46.208-12.8 58.965zM256 732.502l475.776-305.835-475.776-305.835z" />
<glyph unicode="&#xe912;" glyph-name="award" d="M470.098 629.872v0zM402.271 516.045v0zM418.283 465.141v0zM486.11 414.235v0zM537.925 414.235v0zM605.753 465.141v0zM621.761 516.045v0zM553.937 629.872v0zM228.791 365.13v0zM391.171 227.561v0zM274.566 295.236v0zM795.255 365.13v0zM632.872 227.561v0zM749.477 295.236v0zM800.245 727.257v0zM663.279 864.225v0zM223.796 727.257v0zM360.765 864.225v0zM99.544 464.758l-25.918-33.893 0.606-0.464 0.622-0.441 24.69 34.798zM924.507 464.758l24.69-34.798 0.62 0.441 0.609 0.464-25.919 33.893zM469.356 21.333c0-23.563 19.102-42.667 42.667-42.667s42.667 19.103 42.667 42.667h-85.333zM682.689-21.333c23.563 0 42.667 19.103 42.667 42.667s-19.103 42.667-42.667 42.667v-85.333zM341.356 64c-23.565 0-42.667-19.103-42.667-42.667s19.102-42.667 42.667-42.667v85.333zM223.625 379.847v0zM805.837 704v0zM819.957 390.576v0zM204.332 390.406v0zM428.179 555.745c38.484 0 71.359 25.524 82.62 61.326l-81.401 25.604c-0.258-0.818-0.659-1.245-0.922-1.443-0.135-0.101-0.227-0.137-0.256-0.147-0.018-0.006-0.019-0.006-0.040-0.006v-85.333zM427.882 550.17c-0.601 0.451-0.822 0.758-0.886 0.853-0.075 0.11-0.14 0.236-0.196 0.435-0.136 0.482-0.221 1.476 0.16 2.691 0.176 0.559 0.404 1.002 0.61 1.31 0.201 0.301 0.336 0.406 0.324 0.397-0.031-0.024-0.138-0.094-0.271-0.142-0.151-0.053-0.022 0.032 0.556 0.032v85.333c-86.773 0-116.375-110.482-51.519-159.157l51.222 68.25zM458.984 452.338c11.196 35.594-0.829 75.112-31.102 97.832l-51.222-68.25c0.272-0.205 0.668-0.636 0.922-1.443 0.255-0.811 0.263-1.699 0-2.536l81.402-25.604zM460.498 448.36c-0.602-0.452-0.835-0.486-0.677-0.436 0.147 0.047 0.37 0.082 0.587 0.076 0.386-0.012 0.126-0.11-0.502 0.361-0.625 0.469-0.996 1.053-1.141 1.473-0.062 0.18-0.106 0.385-0.111 0.669-0.004 0.27 0.023 0.862 0.33 1.836l-81.402 25.604c-12.498-39.733 3.641-77.223 31.102-97.834 27.659-20.759 68.861-25.651 103.037 0l-51.222 68.251zM563.536 448.36c-30.623 22.983-72.414 22.983-103.038 0l51.222-68.251c0.149 0.114 0.231 0.142 0.247 0.148 0.026 0.006 0.040 0.006 0.049 0.006s0.024 0 0.050-0.006c0.016-0.006 0.098-0.034 0.247-0.148l51.222 68.251zM565.051 452.338c0.307-0.974 0.334-1.566 0.33-1.836-0.005-0.284-0.049-0.489-0.111-0.669-0.146-0.42-0.516-1.004-1.141-1.473-0.628-0.471-0.889-0.373-0.502-0.361 0.217 0.006 0.44-0.029 0.587-0.076 0.158-0.050-0.075-0.015-0.677 0.436l-51.222-68.251c34.177-25.651 75.377-20.759 103.036 0 27.46 20.611 43.6 58.1 31.101 97.834l-81.4-25.604zM596.15 550.17c-30.27-22.72-42.295-62.238-31.099-97.832l81.4 25.604c-0.262 0.837-0.256 1.725 0 2.536 0.256 0.807 0.649 1.238 0.922 1.443l-51.223 68.25zM595.854 555.745c0.58 0 0.705-0.085 0.558-0.032-0.131 0.047-0.239 0.117-0.273 0.142-0.011 0.009 0.125-0.096 0.324-0.397 0.21-0.308 0.438-0.751 0.614-1.31 0.381-1.215 0.296-2.208 0.159-2.691-0.057-0.199-0.119-0.324-0.199-0.435-0.063-0.095-0.284-0.402-0.887-0.853l51.223-68.25c64.859 48.675 35.254 159.157-51.519 159.157v-85.333zM513.236 617.070c11.261-35.801 44.136-61.326 82.618-61.326v85.333c-0.017 0-0.023 0.001-0.040 0.006-0.028 0.010-0.119 0.047-0.256 0.147-0.262 0.197-0.666 0.625-0.922 1.443l-81.401-25.604zM594.637 642.674c-25.719 81.768-139.52 81.768-165.239 0l81.401-25.604c0.307 0.975 0.596 1.39 0.658 1.475 0.068 0.093 0.071 0.075 0.015 0.036-0.082-0.058 0.084 0.086 0.546 0.086s0.629-0.144 0.546-0.086c-0.055 0.039-0.052 0.057 0.015-0.036 0.061-0.085 0.351-0.5 0.658-1.475l81.401 25.604zM768.023 576v-55.484h85.333v55.484h-85.333zM256.022 520.516v55.484h-85.333v-55.484h85.333zM615.822 266.672c-22.238-9.694-43.452-17.92-62.122-23.66-19.295-5.928-33.187-8.346-41.678-8.346v-85.333c21.128 0 44.567 5.296 66.743 12.112 22.807 7.009 47.206 16.56 71.157 27.005l-34.099 78.222zM512.022 234.667c-8.492 0-22.384 2.418-41.679 8.346-18.67 5.74-39.884 13.966-62.12 23.66l-34.104-78.222c23.952-10.445 48.354-19.996 71.157-27.005 22.179-6.815 45.617-12.112 66.746-12.112v85.333zM408.223 266.672c-59.97 26.146-81.063 35.931-103.232 58.476l-60.849-59.824c35.784-36.398 73.109-52.082 129.977-76.874l34.104 78.222zM189.211 349.195c11.426-28.382 33.481-62.054 54.931-83.871l60.849 59.824c-13.563 13.796-29.396 37.973-36.621 55.916l-79.159-31.869zM649.921 188.45c56.872 24.792 94.197 40.476 129.98 76.874l-60.848 59.824c-22.17-22.545-43.264-32.33-103.231-58.476l34.099-78.222zM755.672 381.065c-7.225-17.943-23.057-42.121-36.619-55.916l60.848-59.824c21.453 21.817 43.509 55.489 54.932 83.871l-79.161 31.869zM512.022 832c82.734 0 113.983-0.526 138.070-8.353l26.374 81.157c-40.186 13.056-88.348 12.53-164.444 12.53v-85.333zM840.823 740.442c-25.321 77.936-86.426 139.039-164.358 164.362l-26.374-81.157c51.962-16.882 92.695-57.618 109.579-109.575l81.152 26.37zM512.022 917.333c-76.094 0-124.26 0.526-164.442-12.53l26.369-81.157c24.088 7.827 55.337 8.353 138.073 8.353v85.333zM264.375 714.072c16.882 51.957 57.617 92.693 109.574 109.575l-26.369 81.157c-77.936-25.323-139.039-86.426-164.362-164.362l81.157-26.37zM229.022 425.204l-104.788 74.352-49.38-69.595 104.788-74.354 49.38 69.597zM125.461 498.65c-68.871 52.667-31.626 162.683 55.074 162.683v85.333c-168.303 0-240.602-213.565-106.909-315.801l51.835 67.785zM844.646 355.777l104.55 74.183-49.38 69.595-104.55-74.182 49.38-69.596zM950.426 430.866c133.689 102.236 61.394 315.801-106.911 315.801v-85.333c86.699 0 123.944-110.016 55.074-162.683l51.837-67.785zM469.356 192v-170.667h85.333v170.667h-85.333zM682.689 64h-341.334v-85.333h341.334v85.333zM256.022 576c0 63.229 0.148 96.515 4.259 120.912l-84.148 14.177c-5.593-33.203-5.444-75.295-5.444-135.088h85.333zM260.281 696.912c1.113 6.607 2.472 12.17 4.094 17.161l-81.157 26.37c-3.086-9.499-5.373-19.195-7.085-29.354l84.148-14.177zM170.689 520.516c0-65.648-0.416-111.399 12.076-152.951l81.72 24.569c-8.048 26.77-8.463 57.79-8.463 128.383h-85.333zM182.765 367.565c1.867-6.207 4.005-12.305 6.446-18.369l79.159 31.869c-1.48 3.675-2.764 7.339-3.885 11.069l-81.72-24.569zM768.023 520.516c0-70.897-0.421-101.89-8.562-128.708l81.653-24.784c12.663 41.723 12.242 87.574 12.242 153.492h-85.333zM759.461 391.809c-1.098-3.616-2.35-7.171-3.789-10.744l79.161-31.869c2.367 5.888 4.454 11.81 6.281 17.829l-81.653 24.784zM853.356 576c0 59.794 0.148 101.885-5.444 135.088l-84.15-14.176c4.113-24.397 4.261-57.684 4.261-120.912h85.333zM847.912 711.088c-1.712 10.159-3.999 19.855-7.088 29.354l-81.152-26.37c1.621-4.99 2.981-10.554 4.090-17.16l84.15 14.176zM795.267 425.374c-3.817-2.708-7.896-5.024-12.18-6.911l34.406-78.091c9.546 4.21 18.642 9.37 27.153 15.406l-49.38 69.596zM179.641 355.607c8.703-6.172 18.096-11.31 27.988-15.314l31.991 79.112c-3.746 1.515-7.303 3.461-10.599 5.8l-49.38-69.597zM180.535 661.333h37.672v85.333h-37.672v-85.333zM843.514 746.667h-37.678v-85.333h37.678v85.333z" />
<glyph unicode="&#xe913;" glyph-name="globe" d="M404.081 590.488c16.251 92.312 41.969 183.704 56.787 232.781 16.708 2.253 33.779 3.418 51.143 3.418s34.436-1.165 51.143-3.418c14.818-49.078 40.536-140.469 56.787-232.781-38.389-5.67-75.303-9.133-107.93-9.133s-69.541 3.464-107.93 9.133zM714.349 607.875c-11.776 66.69-28.045 132.276-42.061 183.329 69.837-32.68 128.102-86.078 166.835-152.296-35.296-9.844-78.726-21.095-124.774-31.033zM727.482 512.513c56.39 11.943 109.12 25.843 149.376 37.284 8.998-32.348 13.818-66.47 13.818-101.777 0-17.365-1.165-34.436-3.418-51.144-36.48-11.016-96.486-28.098-162.95-42.826 3.955 32.219 6.368 64.086 6.368 93.97 0 20.785-1.165 42.469-3.194 64.492zM707.61 252.422c53.997 10.797 105.67 23.814 147.584 35.322-37.587-80.326-102.579-145.318-182.906-182.906 11.507 41.914 24.525 93.587 35.322 147.584zM605.98 235.725c-14.728-66.464-31.811-126.47-42.826-162.95-16.708-2.253-33.779-3.418-51.144-3.418s-34.436 1.165-51.144 3.418c-11.015 36.48-28.097 96.486-42.826 162.95 32.218-3.955 64.086-6.368 93.969-6.368s61.751 2.413 93.97 6.368zM316.41 252.422c10.801-53.997 23.817-105.67 35.326-147.584-80.331 37.587-145.321 102.579-182.91 182.906 41.916-11.507 93.59-24.525 147.584-35.322zM299.714 354.051c-66.464 14.728-126.472 31.811-162.952 42.826-2.253 16.708-3.418 33.779-3.418 51.144 0 35.306 4.819 69.429 13.821 101.777 40.256-11.442 92.984-25.342 149.372-37.284-2.026-22.023-3.193-43.708-3.193-64.492 0-29.884 2.417-61.751 6.37-93.97zM309.67 607.874c-46.047 9.939-89.478 21.189-124.774 31.034 38.734 66.218 97.002 119.617 166.838 152.296-14.017-51.053-30.283-116.639-42.064-183.33zM389.344 448.021c0 14.904 0.724 30.756 2.063 47.297 41.202-6.039 82.527-9.964 120.604-9.964s79.402 3.924 120.604 9.964c1.338-16.541 2.063-32.393 2.063-47.297 0-33.976-3.757-72.632-9.864-112.803-40.172-6.107-78.828-9.864-112.803-9.864s-72.632 3.757-112.803 9.864c-6.106 40.172-9.863 78.828-9.863 112.803zM512.010 922.687c-33.612 0-66.459-3.501-98.178-10.176-155.412-32.702-282.664-141.279-341.411-285.113-22.629-55.405-35.077-115.997-35.077-179.378 0-33.613 3.501-66.46 10.176-98.179 38.593-183.404 182.906-327.718 366.313-366.31 31.719-6.675 64.566-10.176 98.178-10.176s66.46 3.501 98.179 10.176c183.405 38.592 327.718 182.906 366.31 366.31 6.675 31.719 10.176 64.566 10.176 98.179 0 63.331-12.429 123.878-35.021 179.249-58.726 143.898-186.010 252.531-341.466 285.242-31.719 6.674-64.566 10.176-98.179 10.176z" />
<glyph unicode="&#xe914;" glyph-name="logout" d="M510.3 22.765h-382.726c-23.474 0-42.524 19.053-42.524 42.522v765.45c0 23.474 19.052 42.524 42.524 42.524h382.726c23.516 0 42.524 19.008 42.524 42.524s-19.008 42.528-42.524 42.528h-382.726c-70.336 0-127.574-57.24-127.574-127.576v-765.45c0-70.336 57.238-127.571 127.574-127.571h382.726c23.516 0 42.524 19.008 42.524 42.522 0 23.52-19.008 42.528-42.524 42.528zM1011.347 478.357l-258.554 255.15c-16.672 16.5-43.629 16.286-60.128-0.426s-16.333-43.63 0.422-60.131l184.774-182.346h-495.119c-23.516 0-42.524-19.008-42.524-42.524s19.008-42.526 42.524-42.526h495.119l-184.774-182.349c-16.749-16.499-16.877-43.418-0.422-60.128 8.333-8.416 19.302-12.672 30.278-12.672 10.803 0 21.6 4.083 29.85 12.25l258.554 255.149c8.077 7.994 12.672 18.882 12.672 30.278 0 11.392-4.55 22.236-12.672 30.274z" />
<glyph unicode="&#xe915;" glyph-name="profile" horiz-adv-x="896" d="M801.997-64c-22.086 0-40 17.907-40 40 0 156.595-127.399 284-283.997 284h-60c-156.598 0-284-127.405-284-284 0-22.093-17.908-40-40-40s-40 17.907-40 40c0 200.71 163.29 364 364 364h60c200.707 0 363.997-163.29 363.997-364 0-22.093-17.907-40-40-40zM444 420c-148.878 0-270 121.122-270 270s121.122 270 270 270c148.878 0 269.997-121.122 269.997-270s-121.119-270-269.997-270zM444 880c-104.766 0-190-85.234-190-190s85.234-190 190-190c104.766 0 190 85.234 190 190s-85.234 190-190 190z" />
<glyph unicode="&#xe916;" glyph-name="setting" d="M511.883-64c-66.208 0-120.073 53.862-120.073 120.070v1.005c0 14.246-8.643 26.854-22.021 32.109-36.638 14.381-70.791 34.272-101.517 59.11-11.319 9.146-26.642 10.522-39.036 3.482-0.040-0.026-0.195-0.109-0.234-0.134-57.661-32.493-131.132-12.16-163.769 45.318-15.826 27.872-19.826 60.224-11.263 91.091 8.581 30.931 28.733 56.659 56.747 72.444l0.498 0.282c12.164 6.908 19.064 20.624 17.174 34.134-5.093 36.336-4.983 73.817 0.339 110.119 2.009 13.734-5.017 27.716-17.485 34.797l-0.654 0.372c-27.885 15.711-48.037 41.437-56.619 72.367-8.563 30.871-4.563 63.22 11.263 91.091 32.639 57.483 106.11 77.807 163.769 45.32l2.408-1.367c12.303-6.988 27.608-5.639 38.997 3.434 30.134 24.006 63.521 43.296 99.235 57.334 13.466 5.295 22.167 17.921 22.167 32.168 6.6 159.307 233.581 159.233 240.145 0v-0.804c0-14.168 8.636-26.768 21.999-32.101 35.322-14.095 68.339-33.336 98.131-57.189 11.418-9.137 26.746-10.524 39.053-3.536l3.507 1.994c57.779 32.556 131.251 12.227 163.891-45.254 15.821-27.869 19.821-60.218 11.258-91.089-8.576-30.931-28.73-56.656-56.749-72.44l-2.739-1.559c-12.224-6.942-19.13-20.657-17.178-34.127 5.178-35.761 5.306-72.674 0.397-108.474-1.85-13.534 5.050-27.251 17.165-34.134l2.419-1.373c27.981-15.788 48.109-41.498 56.685-72.404 28.755-102.182-82.816-188.678-175.027-136.416l-1.395 0.794c-12.435 7.059-27.84 5.626-39.27-3.648-30.355-24.64-64.102-44.448-100.288-58.867-13.274-5.293-21.855-17.869-21.855-32.045v-1.805c0-66.208-53.865-120.070-120.073-120.070zM246.18 236.384c25.7 0 51.251-8.73 72.414-25.837 24.365-19.699 51.431-35.462 80.452-46.854 44.233-17.37 72.812-59.219 72.812-106.618v-1.005c2.205-53.107 77.863-53.069 80.049 0v1.805c0 47.142 28.367 88.909 72.268 106.406 28.67 11.424 55.409 27.123 79.486 46.656 37.203 30.202 87.93 34.56 129.222 11.11l1.28-0.723c19.238-10.842 43.846-4.064 54.758 15.162 5.242 9.235 6.573 19.949 3.738 30.17-2.854 10.272-9.568 18.835-18.906 24.096-0.045 0.026-0.083 0.045-0.122 0.070l-2.477 1.402c-40.941 23.251-63.29 68.239-56.934 114.605 3.891 28.401 3.795 57.775-0.32 86.146-6.63 45.816 16.218 92.11 56.87 115.196l2.861 1.625c9.466 5.331 16.179 13.888 19.027 24.166 2.835 10.218 1.51 20.931-3.731 30.164-10.918 19.228-35.533 25.997-54.867 15.107l-3.392-1.928c-40.979-23.27-91.456-19.087-128.608 10.653-23.622 18.913-49.792 34.164-77.772 45.331-43.969 17.545-72.38 59.328-72.38 106.449v0.806c-2.2 53.092-77.853 53.090-80.049 0 0-47.38-28.627-89.25-72.928-106.664-28.291-11.121-54.747-26.412-78.642-45.446-37.106-29.564-87.507-33.66-128.401-10.436l-2.289 1.299c-19.228 10.832-43.837 4.058-54.755-15.167-5.244-9.236-6.57-19.948-3.736-30.166 2.852-10.276 9.565-18.835 18.908-24.099l0.774-0.438c40.927-23.244 63.898-69.858 57.146-115.986-4.22-28.797-4.308-58.614-0.266-87.437 6.496-46.43-15.843-91.502-56.916-114.83l-0.616-0.352c-9.462-5.331-16.175-13.888-19.027-24.166-2.836-10.221-1.509-20.928 3.734-30.163 10.915-19.226 35.525-26.003 54.867-15.11 17.695 10.048 37.123 15.002 56.468 15.002zM511.883 238.182c-115.864 0-210.127 94.262-210.127 210.126 11.543 278.763 408.753 278.681 420.254-0.002 0-115.862-94.262-210.124-210.127-210.124zM511.883 578.387c-71.725 0-130.079-58.353-130.079-130.079 7.146-172.564 253.039-172.52 260.161 0 0 71.727-58.356 130.079-130.082 130.079z" />
<glyph unicode="&#xe917;" glyph-name="archive" d="M384 453.334c-26.509 0-48-21.49-48-48s21.491-48 48-48v96zM640 357.334c26.509 0 48 21.491 48 48s-21.491 48-48 48v-96zM464 277.331c0-26.509 21.491-48 48-48s48 21.491 48 48h-96zM560 533.334c0 26.51-21.491 48-48 48s-48-21.49-48-48h96zM215.939 62.080v0zM168.743 109.274v0zM855.258 109.274v0zM808.064 62.080v0zM808.064 748.591v0zM855.258 701.395v0zM215.939 748.591v0zM168.743 701.395v0zM663.258 906.893v0zM800.23 769.924v0zM360.746 906.893v0zM223.777 769.924v0zM384 357.334h256v96h-256v-96zM560 277.331v256.003h-96v-256.003h96zM512 69.331c-81.064 0-138.006 0.070-181.827 4.819-42.923 4.646-67.528 13.325-86.020 26.758l-56.428-77.664c37.585-27.309 81.016-39.002 132.108-44.538 50.193-5.44 113.242-5.376 192.167-5.376v96zM80 405.334c0-78.925-0.066-141.974 5.372-192.169 5.535-51.091 17.231-94.522 44.538-132.102l77.665 56.422c-13.436 18.496-22.111 43.098-26.762 86.022-4.748 43.821-4.813 100.764-4.813 181.827h-96zM244.153 100.909c-14.036 10.202-26.38 22.541-36.577 36.576l-77.665-56.422c16.119-22.189 35.629-41.702 57.815-57.818l56.428 77.664zM848 405.334c0-81.063-0.064-138.006-4.813-181.827-4.653-42.925-13.325-67.526-26.765-86.022l77.67-56.422c27.302 37.581 39.002 81.011 44.538 132.102 5.434 50.195 5.37 113.244 5.37 192.169h-96zM512-26.669c78.925 0 141.978-0.064 192.166 5.376 51.091 5.536 94.522 17.229 132.109 44.538l-56.429 77.664c-18.49-13.434-43.098-22.112-86.022-26.758-43.821-4.749-100.76-4.819-181.824-4.819v-96zM816.422 137.485c-10.195-14.035-22.541-26.374-36.576-36.576l56.429-77.664c22.182 16.115 41.696 35.629 57.818 57.818l-77.67 56.422zM944 405.334c0 78.925 0.064 141.975-5.37 192.167-5.536 51.091-17.235 94.522-44.538 132.108l-77.67-56.427c13.44-18.493 22.112-43.098 26.765-86.020 4.749-43.821 4.813-100.764 4.813-181.827h96zM779.846 709.758c14.035-10.198 26.381-22.541 36.576-36.577l77.67 56.427c-16.122 22.186-35.635 41.697-57.818 57.816l-56.429-77.666zM176 405.334c0 81.064 0.066 138.006 4.813 181.827 4.651 42.923 13.327 67.528 26.762 86.020l-77.665 56.427c-27.308-37.585-39.003-81.016-44.538-132.108-5.438-50.192-5.372-113.242-5.372-192.167h96zM187.725 787.424c-22.186-16.119-41.696-35.629-57.815-57.816l77.665-56.427c10.198 14.036 22.541 26.379 36.577 36.577l-56.428 77.666zM512.003 869.334c83.15 0 113.342-0.592 136.426-8.092l29.664 91.301c-41.188 13.383-90.412 12.791-166.090 12.791v-96zM648.429 861.242c50.33-16.355 89.792-55.817 106.15-106.151l91.302 29.666c-25.856 79.56-88.23 141.936-167.789 167.786l-29.664-91.301zM512.003 965.334c-75.679 0-124.902 0.592-166.090-12.791l29.666-91.301c23.082 7.5 53.274 8.092 136.424 8.092v96zM345.912 952.543c-79.56-25.851-141.935-88.227-167.786-167.786l91.302-29.666c16.354 50.334 55.816 89.796 106.15 106.151l-29.666 91.301zM266.064 741.731c0.96 5.048 2.079 9.409 3.364 13.361l-91.302 29.666c-2.659-8.184-4.738-16.498-6.372-25.098l94.31-17.929zM512 837.334c-77.58 0-139.781 0.060-189.459-5.085-50.422-5.222-93.522-16.232-130.913-42.060l54.563-78.988c18.545 12.81 43.397 21.121 86.241 25.558 43.587 4.515 99.964 4.574 179.569 4.574v96zM191.628 790.189c-1.311-0.906-2.612-1.828-3.902-2.765l56.428-77.666c0.675 0.49 1.354 0.972 2.037 1.443l-54.563 78.988zM852.25 759.655c-1.632 8.601-3.712 16.917-6.374 25.102l-91.296-29.666c1.28-3.953 2.4-8.314 3.36-13.363l94.31 17.927zM512 741.334c79.608 0 135.987-0.060 179.571-4.575 42.848-4.438 67.699-12.749 86.24-25.56l54.566 78.985c-37.389 25.832-80.493 36.842-130.912 42.065-49.683 5.146-111.883 5.085-189.466 5.085v-96zM777.811 711.199c0.685-0.471 1.363-0.951 2.035-1.441l56.429 77.666c-1.286 0.936-2.586 1.855-3.898 2.76l-54.566-78.985z" />
<glyph unicode="&#xe918;" glyph-name="send" d="M979.755 841.856c1.835 6.443 2.133 13.397 0.64 20.309-1.024 4.821-2.901 9.557-5.589 13.867-2.731 4.352-6.187 8.107-10.155 11.179-4.992 3.84-10.624 6.4-16.469 7.723s-12.032 1.451-18.176 0.171c-1.792-0.384-3.627-0.896-5.376-1.493l-0.896-0.299-852.48-298.368c-10.752-3.755-19.925-11.776-24.917-22.955-9.557-21.547 0.128-46.763 21.675-56.32l369.024-164.011 164.011-369.024c4.608-10.368 13.355-18.901 24.875-22.955 22.229-7.765 46.592 3.925 54.357 26.197l298.368 852.437c0.427 1.152 0.811 2.304 1.152 3.499zM459.904 434.902l-258.901 115.029 575.275 201.387zM836.651 690.944l-201.387-575.275-115.029 258.901z" />
<glyph unicode="&#xe919;" glyph-name="search" d="M684.416 262.144c-1.451-1.109-2.859-2.347-4.224-3.712s-2.56-2.731-3.712-4.224c-53.675-51.755-126.677-83.541-207.147-83.541-82.475 0-157.099 33.365-211.2 87.467s-87.467 128.725-87.467 211.2 33.365 157.099 87.467 211.2 128.725 87.467 211.2 87.467 157.099-33.365 211.2-87.467 87.467-128.725 87.467-211.2c0-80.469-31.787-153.472-83.584-207.189zM926.165 72.832l-156.8 156.8c52.523 65.707 83.968 149.035 83.968 239.701 0 106.027-43.008 202.069-112.469 271.531s-165.504 112.469-271.531 112.469-202.069-43.008-271.531-112.469-112.469-165.504-112.469-271.531 43.008-202.069 112.469-271.531 165.504-112.469 271.531-112.469c90.667 0 173.995 31.445 239.701 83.968l156.8-156.8c16.683-16.683 43.691-16.683 60.331 0s16.683 43.691 0 60.331z" />
<glyph unicode="&#xe91a;" glyph-name="mute" d="M295.059 270.477v0zM278.465 283.821v0zM161.421 325.84v0zM161.421 570.16v0zM295.059 625.523v0zM278.465 612.177v0zM43.217 401.939v0zM118.532 326.625v0zM560.054 131.712v0zM337.555 235.456v0zM535.899 120.32v0zM560.054 764.287v0zM337.555 660.547v0zM535.899 775.681v0zM43.217 494.061v0zM118.532 569.375v0zM807.142 562.098c-18.746 18.746-49.139 18.746-67.885 0s-18.746-49.137 0-67.882l67.885 67.882zM920.275 313.197c18.746-18.746 49.139-18.746 67.885 0s18.746 49.137 0 67.882l-67.885-67.882zM739.258 381.079c-18.746-18.746-18.746-49.137 0-67.882s49.139-18.746 67.885 0l-67.885 67.882zM988.16 494.216c18.746 18.746 18.746 49.137 0 67.882s-49.139 18.746-67.885 0l67.885-67.882zM549.354 538.002v-180.004h96.003v180.004h-96.003zM90.687 423.535v48.929h-96v-48.929h96zM325.587 588.481l42.496 35.024-61.057 74.082-42.495-35.024 61.056-74.082zM368.083 272.493l-42.496 35.027-61.057-74.086 42.496-35.021 61.057 74.080zM325.587 307.52c-7.919 6.522-13.099 10.81-18.441 14.792l-57.362-76.975c3.024-2.259 6.118-4.787 14.746-11.904l61.057 74.086zM140.128 278.093c11.182 0 15.18-0.013 18.947-0.198l4.692 95.889c-6.654 0.325-13.378 0.312-23.639 0.312v-96.003zM307.146 322.312c-41.62 31.015-91.535 48.933-143.379 51.471l-4.692-95.889c32.799-1.6 64.378-12.941 90.71-32.557l57.362 76.975zM140.128 521.905c10.261 0 16.985-0.013 23.64 0.312l-4.692 95.885c-3.768-0.184-7.765-0.198-18.947-0.198v-96zM264.531 662.563c-8.629-7.112-11.723-9.644-14.747-11.898l57.362-76.978c5.342 3.981 10.522 8.268 18.441 14.794l-61.056 74.082zM163.768 522.217c51.844 2.538 101.758 20.456 143.379 51.471l-57.362 76.978c-26.332-19.622-57.91-30.958-90.709-32.563l4.692-95.885zM-5.312 423.535c0-9.947-0.075-18.873 0.827-26.934l95.405 10.675c-0.157 1.399-0.232 3.717-0.232 16.259h-96zM140.128 374.095c-12.541 0-14.86 0.075-16.259 0.232l-10.675-95.402c8.061-0.902 16.987-0.832 26.934-0.832v96.003zM-4.486 396.602c6.926-61.898 55.782-110.752 117.68-117.677l10.675 95.402c-17.331 1.939-31.011 15.619-32.95 32.95l-95.405-10.675zM549.354 357.998c0-68.353-0.095-114.881-4.279-147.784-4.308-33.869-11.424-38.406-12.040-38.829l54.037-79.347c36.685 24.986 48.219 66.624 53.235 106.067 5.139 40.416 5.050 94.323 5.050 159.892h-96.003zM307.027 198.413c50.598-41.702 92.141-76.064 126.598-97.798 33.624-21.216 73.096-38.797 115.706-26.381l-26.863 92.166c-0.716-0.205-8.743-2.81-37.623 15.405-28.047 17.696-64.014 47.219-116.762 90.688l-61.057-74.080zM533.036 171.386c-3.239-2.208-6.806-3.885-10.568-4.986l26.863-92.166c13.437 3.917 26.173 9.926 37.742 17.805l-54.037 79.347zM645.357 538.002c0 65.568 0.090 119.48-5.050 159.894-5.016 39.438-16.55 81.082-53.235 106.065l-54.037-79.347c0.616-0.419 7.731-4.957 12.040-38.831 4.184-32.897 4.279-79.428 4.279-147.781h96.003zM368.083 623.505c52.748 43.473 88.714 72.994 116.762 90.687 28.88 18.219 36.908 15.614 37.623 15.406l26.863 92.164c-42.611 12.42-82.082-5.165-115.706-26.376-34.457-21.737-75.999-56.098-126.598-97.8l61.057-74.082zM587.073 803.961c-11.568 7.878-24.305 13.886-37.742 17.802l-26.863-92.164c3.762-1.097 7.329-2.779 10.568-4.985l54.037 79.347zM90.687 472.464c0 12.542 0.075 14.86 0.232 16.259l-95.405 10.675c-0.902-8.061-0.827-16.987-0.827-26.934h96zM140.128 617.905c-9.947 0-18.873 0.075-26.934-0.827l10.675-95.405c1.398 0.157 3.717 0.232 16.259 0.232v96zM90.919 488.723c1.939 17.331 15.619 31.011 32.95 32.95l-10.675 95.405c-61.898-6.926-110.754-55.782-117.68-117.679l95.405-10.675zM807.142 313.197l181.018 181.019-67.885 67.882-181.018-181.019 67.885-67.882zM739.258 494.216l90.509-90.509 67.885 67.882-90.509 90.509-67.885-67.882zM829.766 403.706l90.509-90.509 67.885 67.882-90.509 90.509-67.885-67.882z" />
<glyph unicode="&#xe91b;" glyph-name="edit" d="M512 42.667h384c23.552 0 42.667 19.115 42.667 42.667s-19.115 42.667-42.667 42.667h-384c-23.552 0-42.667-19.115-42.667-42.667s19.115-42.667 42.667-42.667zM673.835 819.499l-533.333-533.333c-5.205-5.163-9.259-11.947-11.221-19.84l-42.667-170.667c-1.664-6.4-1.792-13.568 0-20.693 5.717-22.869 28.885-36.779 51.755-31.061l170.667 42.667c7.125 1.749 14.080 5.504 19.84 11.221l533.333 533.333c25.984 25.984 38.997 60.16 38.997 94.165s-13.013 68.181-38.997 94.165-60.203 39.040-94.208 39.040-68.181-13.013-94.165-38.997zM734.165 759.168c9.344 9.344 21.504 13.995 33.835 13.995s24.491-4.651 33.835-13.995 13.995-21.504 13.995-33.835-4.651-24.491-13.995-33.835l-524.971-524.971-90.24-22.571 22.571 90.24z" />
<glyph unicode="&#xe91c;" glyph-name="trash" d="M768 640v-554.667c0-11.776-4.736-22.4-12.501-30.165s-18.389-12.501-30.165-12.501h-426.667c-11.776 0-22.4 4.736-30.165 12.501s-12.501 18.389-12.501 30.165v554.667zM725.333 725.334v42.667c0 35.328-14.379 67.413-37.504 90.496s-55.168 37.504-90.496 37.504h-170.667c-35.328 0-67.413-14.379-90.496-37.504s-37.504-55.168-37.504-90.496v-42.667h-170.667c-23.552 0-42.667-19.115-42.667-42.667s19.115-42.667 42.667-42.667h42.667v-554.667c0-35.328 14.379-67.413 37.504-90.496s55.168-37.504 90.496-37.504h426.667c35.328 0 67.413 14.379 90.496 37.504s37.504 55.168 37.504 90.496v554.667h42.667c23.552 0 42.667 19.115 42.667 42.667s-19.115 42.667-42.667 42.667zM384 725.334v42.667c0 11.776 4.736 22.4 12.501 30.165s18.389 12.501 30.165 12.501h170.667c11.776 0 22.4-4.736 30.165-12.501s12.501-18.389 12.501-30.165v-42.667zM384 469.334v-256c0-23.552 19.115-42.667 42.667-42.667s42.667 19.115 42.667 42.667v256c0 23.552-19.115 42.667-42.667 42.667s-42.667-19.115-42.667-42.667zM554.667 469.334v-256c0-23.552 19.115-42.667 42.667-42.667s42.667 19.115 42.667 42.667v256c0 23.552-19.115 42.667-42.667 42.667s-42.667-19.115-42.667-42.667z" />
<glyph unicode="&#xe91d;" glyph-name="left" d="M711.219 80.998c13.722-13.926 13.722-36.301 0-50.125s-35.891-13.875-49.613 0l-400.896 404.89c-13.722 13.824-13.722 36.198 0 50.125l400.896 404.89c13.722 13.824 35.891 13.824 49.613 0 13.722-13.875 13.722-36.301 0-50.125l-365.619-379.853 365.619-379.802z" />
<glyph unicode="&#xe91f;" glyph-name="back" d="M854 468.667v-84h-520l238-240-60-60-342 342 342 342 60-60-238-240h520z" />
</font>
</defs>
</svg>
