<svg width="460" height="601" viewBox="0 0 460 601" fill="none" xmlns="http://www.w3.org/2000/svg">
<path d="M248.401 265.131C248.401 263.655 247.294 262.548 245.818 262.548C244.342 262.548 243.235 263.655 243.235 265.131C243.235 266.607 244.342 267.713 245.818 267.713C247.294 267.713 248.401 266.484 248.401 265.131Z" fill="#060000"/>
<path d="M270.539 265.131C270.539 263.655 269.432 262.548 267.956 262.548C266.48 262.548 265.374 263.655 265.374 265.131C265.374 266.607 266.48 267.713 267.956 267.713C269.432 267.713 270.539 266.484 270.539 265.131Z" fill="#060000"/>
<path d="M292.677 265.131C292.677 263.655 291.57 262.548 290.094 262.548C288.618 262.548 287.511 263.655 287.511 265.131C287.511 266.607 288.618 267.713 290.094 267.713C291.57 267.713 292.677 266.484 292.677 265.131Z" fill="#060000"/>
<path d="M314.692 265.131C314.692 263.655 313.585 262.548 312.109 262.548C310.633 262.548 309.526 263.655 309.526 265.131C309.526 266.607 310.633 267.713 312.109 267.713C313.585 267.713 314.692 266.484 314.692 265.131Z" fill="#060000"/>
<path d="M336.215 265.131C336.215 263.655 335.108 262.548 333.632 262.548C332.156 262.548 331.049 263.655 331.049 265.131C331.049 266.607 332.156 267.713 333.632 267.713C334.985 267.713 336.215 266.484 336.215 265.131Z" fill="#060000"/>
<path d="M358.23 265.131C358.23 263.655 357.123 262.548 355.647 262.548C354.171 262.548 353.064 263.655 353.064 265.131C353.064 266.607 354.171 267.713 355.647 267.713C357.123 267.713 358.23 266.484 358.23 265.131Z" fill="#060000"/>
<path d="M380.368 265.131C380.368 263.655 379.261 262.548 377.785 262.548C376.309 262.548 375.202 263.655 375.202 265.131C375.202 266.607 376.309 267.713 377.785 267.713C379.261 267.713 380.368 266.484 380.368 265.131Z" fill="#060000"/>
<path d="M402.506 265.131C402.506 263.655 401.399 262.548 399.923 262.548C398.447 262.548 397.34 263.655 397.34 265.131C397.34 266.607 398.447 267.713 399.923 267.713C401.276 267.713 402.506 266.484 402.506 265.131Z" fill="#060000"/>
<path d="M248.401 239.289C248.401 237.813 247.294 236.707 245.818 236.707C244.342 236.707 243.235 237.813 243.235 239.289C243.235 240.765 244.342 241.872 245.818 241.872C247.294 241.872 248.401 240.642 248.401 239.289Z" fill="#060000"/>
<path d="M270.539 239.289C270.539 237.813 269.432 236.707 267.956 236.707C266.48 236.707 265.374 237.813 265.374 239.289C265.374 240.765 266.48 241.872 267.956 241.872C269.432 241.872 270.539 240.642 270.539 239.289Z" fill="#060000"/>
<path d="M292.677 239.289C292.677 237.813 291.57 236.707 290.094 236.707C288.618 236.707 287.511 237.813 287.511 239.289C287.511 240.765 288.618 241.872 290.094 241.872C291.57 241.872 292.677 240.642 292.677 239.289Z" fill="#060000"/>
<path d="M314.692 239.289C314.692 237.813 313.585 236.707 312.109 236.707C310.633 236.707 309.526 237.813 309.526 239.289C309.526 240.765 310.633 241.872 312.109 241.872C313.585 241.872 314.692 240.642 314.692 239.289Z" fill="#060000"/>
<path d="M336.215 239.289C336.215 237.813 335.108 236.707 333.632 236.707C332.156 236.707 331.049 237.813 331.049 239.289C331.049 240.765 332.156 241.872 333.632 241.872C334.985 241.872 336.215 240.642 336.215 239.289Z" fill="#060000"/>
<path d="M358.23 239.289C358.23 237.813 357.123 236.707 355.647 236.707C354.171 236.707 353.064 237.813 353.064 239.289C353.064 240.765 354.171 241.872 355.647 241.872C357.123 241.872 358.23 240.642 358.23 239.289Z" fill="#060000"/>
<path d="M380.368 239.289C380.368 237.813 379.261 236.707 377.785 236.707C376.309 236.707 375.202 237.813 375.202 239.289C375.202 240.765 376.309 241.872 377.785 241.872C379.261 241.872 380.368 240.642 380.368 239.289Z" fill="#060000"/>
<path d="M402.506 239.289C402.506 237.813 401.399 236.707 399.923 236.707C398.447 236.707 397.34 237.813 397.34 239.289C397.34 240.765 398.447 241.872 399.923 241.872C401.276 241.872 402.506 240.642 402.506 239.289Z" fill="#060000"/>
<path d="M123.936 89.2617C123.936 91.5711 122.064 93.4433 119.755 93.4433C117.445 93.4433 115.573 91.5711 115.573 89.2617C115.573 86.9522 117.445 85.0801 119.755 85.0801C122.064 85.0801 123.936 86.9522 123.936 89.2617Z" fill="#4B64A4"/>
<path d="M123.936 125.298C123.936 127.608 122.064 129.48 119.755 129.48C117.445 129.48 115.573 127.608 115.573 125.298C115.573 122.989 117.445 121.117 119.755 121.117C122.064 121.117 123.936 122.989 123.936 125.298Z" fill="#4B64A4"/>
<path d="M119.755 165.637C122.092 165.637 123.936 163.792 123.936 161.455C123.936 159.118 122.092 157.273 119.755 157.273C117.418 157.273 115.573 159.118 115.573 161.455C115.573 163.669 117.418 165.637 119.755 165.637Z" fill="#4B64A4"/>
<path d="M123.936 197.492C123.936 199.801 122.064 201.673 119.755 201.673C117.445 201.673 115.573 199.801 115.573 197.492C115.573 195.182 117.445 193.31 119.755 193.31C122.064 193.31 123.936 195.182 123.936 197.492Z" fill="#4B64A4"/>
<path d="M158.127 89.2617C158.127 91.5711 156.255 93.4433 153.946 93.4433C151.636 93.4433 149.764 91.5711 149.764 89.2617C149.764 86.9522 151.636 85.0801 153.946 85.0801C156.255 85.0801 158.127 86.9522 158.127 89.2617Z" fill="#4B64A4"/>
<path d="M158.127 125.298C158.127 127.608 156.255 129.48 153.946 129.48C151.636 129.48 149.764 127.608 149.764 125.298C149.764 122.989 151.636 121.117 153.946 121.117C156.255 121.117 158.127 122.989 158.127 125.298Z" fill="#4B64A4"/>
<path d="M153.946 165.637C156.283 165.637 158.127 163.792 158.127 161.455C158.127 159.118 156.283 157.273 153.946 157.273C151.609 157.273 149.764 159.118 149.764 161.455C149.764 163.669 151.609 165.637 153.946 165.637Z" fill="#4B64A4"/>
<path d="M158.127 197.492C158.127 199.801 156.255 201.673 153.946 201.673C151.636 201.673 149.764 199.801 149.764 197.492C149.764 195.182 151.636 193.31 153.946 193.31C156.255 193.31 158.127 195.182 158.127 197.492Z" fill="#4B64A4"/>
<path d="M150.748 315.06L165.506 327.481L150.748 339.903L165.506 352.325L150.748 364.747L165.506 377.169L150.748 389.591L165.506 402.013L150.748 414.434L165.506 426.856L150.748 439.278" stroke="#060000" stroke-width="2" stroke-miterlimit="10"/>
<path d="M170.303 315.06L185.061 327.481L170.303 339.903L185.061 352.325L170.303 364.747L185.061 377.169L170.303 389.591L185.061 402.013L170.303 414.434L185.061 426.856L170.303 439.278" stroke="#060000" stroke-width="2" stroke-miterlimit="10"/>
<path d="M8.36322 457.512L17.3414 448.534L26.4426 457.635L35.0518 449.026L25.9506 439.924L34.9288 430.946L26.8115 422.829L17.8334 431.807L8.60921 422.583L3.7632e-07 431.192L9.22415 440.416L0.245956 449.395L8.36322 457.512Z" fill="black"/>
<path d="M249.849 152.155C271.864 152.155 289.697 134.322 289.697 112.307C289.697 90.2918 271.864 72.4585 249.849 72.4585C227.834 72.4585 210 90.2919 210 112.307" stroke="#4B64A4" stroke-width="2.5" stroke-miterlimit="10"/>
<path d="M272.601 0.999999L253.907 19.6943" stroke="#3F3F3F" stroke-width="1.5" stroke-miterlimit="10"/>
<path d="M272.601 17.2344L253.907 35.9286" stroke="#3F3F3F" stroke-width="1.5" stroke-miterlimit="10"/>
<path d="M272.601 33.5928L253.907 52.2871" stroke="#3F3F3F" stroke-width="1.5" stroke-miterlimit="10"/>
<path d="M272.601 49.9512L253.907 68.6455" stroke="#3F3F3F" stroke-width="1.5" stroke-miterlimit="10"/>
<path d="M272.601 66.1846L253.907 84.8789" stroke="#3F3F3F" stroke-width="1.5" stroke-miterlimit="10"/>
<path d="M272.601 82.543L253.907 101.237" stroke="#3F3F3F" stroke-width="1.5" stroke-miterlimit="10"/>
<path d="M272.601 98.7764L253.907 117.594" stroke="#3F3F3F" stroke-width="1.5" stroke-miterlimit="10"/>
<path d="M467.321 515.78C467.321 571.138 422.444 616.016 367.085 616.016C311.726 616.016 266.849 571.138 266.849 515.78C266.849 460.421 311.726 415.544 367.085 415.544C422.444 415.544 467.321 460.421 467.321 515.78Z" stroke="#4B64A4" stroke-width="2" stroke-miterlimit="10"/>
<path d="M491.82 567.084C463.445 635.979 384.592 668.827 315.697 640.453C246.802 612.078 213.954 533.225 242.329 464.33C270.703 395.435 349.556 362.586 418.451 390.961C487.346 419.336 520.195 498.189 491.82 567.084Z" stroke="#4B64A4" stroke-width="2" stroke-miterlimit="10"/>
<path d="M484.662 515.783C484.662 450.968 431.9 398.206 367.085 398.206C302.269 398.206 249.507 450.968 249.507 515.783C249.507 580.598 302.269 633.36 367.085 633.36C431.9 633.36 484.662 580.598 484.662 515.783Z" stroke="#4B64A4" stroke-width="2" stroke-miterlimit="10"/>
<path d="M467.321 515.78C467.321 571.138 422.444 616.016 367.085 616.016C311.726 616.016 266.849 571.138 266.849 515.78C266.849 460.421 311.726 415.544 367.085 415.544C422.444 415.544 467.321 460.421 467.321 515.78Z" stroke="#4B64A4" stroke-width="2" stroke-miterlimit="10"/>
<path d="M448.749 515.782C448.749 560.884 412.187 597.446 367.085 597.446C321.983 597.446 285.42 560.884 285.42 515.782C285.42 470.68 321.983 434.117 367.085 434.117C412.187 434.117 448.749 470.68 448.749 515.782Z" stroke="#4B64A4" stroke-width="2" stroke-miterlimit="10"/>
<path d="M431.777 515.782C431.777 551.511 402.813 580.474 367.085 580.474C331.356 580.474 302.393 551.511 302.393 515.782C302.393 480.054 331.356 451.09 367.085 451.09C402.813 451.09 431.777 480.054 431.777 515.782Z" stroke="#4B64A4" stroke-width="2" stroke-miterlimit="10"/>
<path d="M321.21 396.853C321.21 416.143 305.572 431.781 286.281 431.781C266.991 431.781 251.353 416.143 251.353 396.853C251.353 377.562 266.991 361.924 286.281 361.924C305.572 361.924 321.21 377.562 321.21 396.853Z" fill="#203864"/>
<path d="M80.0664 537.73L80.0664 444.136L92.6112 444.136L92.6112 537.73L80.0664 537.73Z" fill="#4B64A4"/>
<path d="M80.0664 425.443L80.0664 399L92.6112 399L92.6112 425.443L80.0664 425.443Z" fill="#4B64A4"/>
<path d="M421.145 197.1C411.137 225.189 380.254 239.848 352.164 229.841C324.075 219.833 309.416 188.95 319.424 160.86C329.431 132.771 360.314 118.112 388.404 128.12C416.493 138.127 431.152 169.01 421.145 197.1Z" stroke="#4B64A4" stroke-width="19" stroke-miterlimit="10"/>
</svg>
