<svg width="16" height="16" viewBox="0 0 16 16" fill="none" xmlns="http://www.w3.org/2000/svg">
<path d="M4.78125 10.0312C4.78125 10.4627 4.43147 10.8125 4 10.8125C2.96369 10.7713 2.96397 9.291 4 9.25C4.43147 9.25 4.78125 9.59978 4.78125 10.0312ZM6.6875 9.25C6.25603 9.25 5.90625 9.59978 5.90625 10.0312C5.94741 11.0676 7.42775 11.0673 7.46875 10.0312C7.46875 9.59978 7.11897 9.25 6.6875 9.25ZM9.375 9.25C8.94353 9.25 8.59375 9.59978 8.59375 10.0312C8.63491 11.0676 10.1152 11.0673 10.1562 10.0312C10.1562 9.59978 9.80647 9.25 9.375 9.25ZM4 11.9375C3.56853 11.9375 3.21875 12.2873 3.21875 12.7188C3.25991 13.7551 4.74025 13.7548 4.78125 12.7188C4.78125 12.2873 4.43147 11.9375 4 11.9375ZM6.6875 11.9375C6.25603 11.9375 5.90625 12.2873 5.90625 12.7188C5.94741 13.7551 7.42775 13.7548 7.46875 12.7188C7.46875 12.2873 7.11897 11.9375 6.6875 11.9375ZM9.375 11.9375C8.94353 11.9375 8.59375 12.2873 8.59375 12.7188C8.63491 13.7551 10.1152 13.7548 10.1562 12.7188C10.1562 12.2873 9.80647 11.9375 9.375 11.9375ZM12.0625 11.9375C11.631 11.9375 11.2812 12.2873 11.2812 12.7188C11.3224 13.7551 12.8027 13.7548 12.8438 12.7188C12.8438 12.2873 12.494 11.9375 12.0625 11.9375ZM16 7.125V12.25C16 14.3177 14.3177 16 12.25 16H3.75C1.68225 16 0 14.3177 0 12.25V7.125C0 5.05725 1.68225 3.375 3.75 3.375H12.25C14.3177 3.375 16 5.05725 16 7.125ZM14.75 7.125C14.75 5.7465 13.6285 4.625 12.25 4.625H3.75C2.3715 4.625 1.25 5.7465 1.25 7.125V12.25C1.25 13.6285 2.3715 14.75 3.75 14.75H12.25C13.6285 14.75 14.75 13.6285 14.75 12.25V7.125ZM12.875 6.8125H3.125C2.29575 6.8455 2.29638 8.02978 3.125 8.0625H12.875C13.7043 8.0295 13.7036 6.84522 12.875 6.8125ZM6.3125 1.875C6.3125 2.22019 6.03269 2.5 5.6875 2.5C5.34231 2.5 5.0625 2.22019 5.0625 1.875C5.0625 1.53038 4.78212 1.25 4.4375 1.25C4.09288 1.25 3.8125 1.53038 3.8125 1.875C3.8125 2.22019 3.53269 2.5 3.1875 2.5C2.84231 2.5 2.5625 2.22019 2.5625 1.875C2.66556 -0.612531 6.20991 -0.611625 6.3125 1.875ZM11.625 0C10.5911 0 9.75 0.841125 9.75 1.875C9.75 2.22019 10.0298 2.5 10.375 2.5C10.7202 2.5 11 2.22019 11 1.875C11 1.53038 11.2804 1.25 11.625 1.25C11.9696 1.25 12.25 1.53038 12.25 1.875C12.25 2.22019 12.5298 2.5 12.875 2.5C13.2202 2.5 13.5 2.22019 13.5 1.875C13.5 0.841125 12.6589 0 11.625 0ZM12.0625 9.25C11.631 9.25 11.2812 9.59978 11.2812 10.0312C11.3224 11.0676 12.8027 11.0673 12.8438 10.0312C12.8438 9.59978 12.494 9.25 12.0625 9.25Z" fill="#B4BBC3"/>
</svg>
