<svg width="12" height="12" viewBox="0 0 12 12" fill="none" xmlns="http://www.w3.org/2000/svg">
<path d="M6 0C2.69147 0 0 2.69147 0 6C0 9.30853 2.69147 12 6 12C9.30853 12 12 9.30853 12 6C12 2.69147 9.30853 0 6 0ZM8.20953 7.50247C8.405 7.69803 8.405 8.01398 8.20953 8.20953C8.11203 8.30704 7.98404 8.35602 7.85596 8.35602C7.72797 8.35602 7.59998 8.30704 7.50247 8.20953L6 6.70697L4.49753 8.20953C4.40002 8.30704 4.27203 8.35602 4.14404 8.35602C4.01596 8.35602 3.88797 8.30704 3.79047 8.20953C3.595 8.01398 3.595 7.69803 3.79047 7.50247L5.29303 6L3.79047 4.49753C3.595 4.30197 3.595 3.98602 3.79047 3.79047C3.98602 3.595 4.30197 3.595 4.49753 3.79047L6 5.29303L7.50247 3.79047C7.69803 3.595 8.01398 3.595 8.20953 3.79047C8.405 3.98602 8.405 4.30197 8.20953 4.49753L6.70697 6L8.20953 7.50247Z" fill="#475462"/>
</svg>
