<svg width="16" height="16" viewBox="0 0 16 16" fill="none" xmlns="http://www.w3.org/2000/svg">
<path d="M15.375 6C15.0298 6 14.75 6.27981 14.75 6.625V12.875C14.75 13.9089 13.9089 14.75 12.875 14.75H3.125C2.09113 14.75 1.25 13.9089 1.25 12.875V6.625C1.25 6.27981 0.970187 6 0.625 6C0.279813 6 0 6.27981 0 6.625V12.875C0 14.5981 1.40188 16 3.125 16H12.875C14.5981 16 16 14.5981 16 12.875V6.625C16 6.27981 15.7202 6 15.375 6Z" fill="#B4BBC3"/>
<path d="M6.96084 12.1858C7.58944 12.6049 8.41059 12.6049 9.03919 12.1858L12.7892 9.68584C13.3125 9.33694 13.625 8.75344 13.625 8.125V1.875C13.625 0.841125 12.7839 0 11.75 0H4.25C3.21613 0 2.375 0.841125 2.375 1.875V8.125C2.375 8.75344 2.68747 9.33694 3.21081 9.68584L6.96084 12.1858ZM3.625 1.875C3.625 1.53038 3.90538 1.25 4.25 1.25H11.75C12.0946 1.25 12.375 1.53038 12.375 1.875V8.125C12.375 8.33456 12.2706 8.52925 12.0958 8.64578L8.34581 11.1458C8.13766 11.2845 7.86319 11.2851 7.65422 11.1458L3.90422 8.64578C3.72937 8.52925 3.625 8.33456 3.625 8.125V1.875Z" fill="#B4BBC3"/>
<path d="M10.5 3.75H5.5C5.15481 3.75 4.875 4.02981 4.875 4.375C4.875 4.72019 5.15481 5 5.5 5H10.5C10.8452 5 11.125 4.72019 11.125 4.375C11.125 4.02981 10.8452 3.75 10.5 3.75Z" fill="#B4BBC3"/>
<path d="M11.125 6.875C11.125 6.52981 10.8452 6.25 10.5 6.25H5.5C5.15481 6.25 4.875 6.52981 4.875 6.875C4.875 7.22019 5.15481 7.5 5.5 7.5H10.5C10.8452 7.5 11.125 7.22019 11.125 6.875Z" fill="#B4BBC3"/>
</svg>
