<svg width="16" height="16" viewBox="0 0 16 16" fill="none" xmlns="http://www.w3.org/2000/svg">
<g clip-path="url(#clip0_853_45403)">
<path d="M7.99817 16C6.96367 16 6.12203 15.1584 6.12203 14.1239V14.1082C6.12203 13.8856 5.98698 13.6886 5.77795 13.6065C5.20548 13.3818 4.67184 13.071 4.19174 12.6829C4.01488 12.54 3.77546 12.5185 3.58181 12.6285C3.58118 12.6289 3.57877 12.6302 3.57815 12.6306C2.6772 13.1383 1.52922 12.8206 1.01926 11.9225C0.771982 11.487 0.709475 10.9815 0.843275 10.4992C0.977356 10.0159 1.29223 9.61391 1.72994 9.36726L1.73772 9.36285C1.92778 9.25491 2.03559 9.0406 2.00607 8.8295C1.92649 8.26175 1.92821 7.67611 2.01136 7.10889C2.04275 6.8943 1.93297 6.67582 1.73816 6.56519L1.72794 6.55937C1.29223 6.31388 0.977356 5.91192 0.843275 5.42863C0.709475 4.94627 0.771982 4.44081 1.01926 4.00533C1.52925 3.10716 2.67723 2.78959 3.57815 3.29721L3.61577 3.31857C3.80801 3.42776 4.04715 3.40668 4.2251 3.26491C4.69595 2.88981 5.21761 2.58841 5.77564 2.36906C5.98604 2.28632 6.122 2.08904 6.122 1.86644C6.22513 -0.622725 9.77171 -0.621568 9.87427 1.86644V1.87901C9.87427 2.10039 10.0092 2.29726 10.218 2.38059C10.7699 2.60082 11.2858 2.90147 11.7513 3.27417C11.9297 3.41694 12.1692 3.43861 12.3615 3.32942L12.4163 3.29827C13.3191 2.78959 14.4671 3.10722 14.9771 4.00536C15.2243 4.44081 15.2868 4.94627 15.153 5.42863C15.019 5.91192 14.7041 6.31388 14.2663 6.5605L14.2235 6.58486C14.0325 6.69333 13.9246 6.90762 13.9551 7.11809C14.036 7.67686 14.038 8.25362 13.9613 8.81299C13.9324 9.02446 14.0402 9.23878 14.2295 9.34634L14.2673 9.36779C14.7045 9.61447 15.019 10.0162 15.153 10.4991C15.6023 12.0957 13.859 13.4472 12.4182 12.6306L12.3964 12.6182C12.2021 12.5079 11.9614 12.5303 11.7828 12.6752C11.3085 13.0602 10.7812 13.3697 10.2158 13.595C10.0084 13.6777 9.87431 13.8742 9.87431 14.0957V14.1239C9.87431 15.1584 9.03267 16 7.99817 16ZM3.84656 11.3065C4.24812 11.3065 4.64736 11.4429 4.97803 11.7102C5.35873 12.018 5.78164 12.2643 6.2351 12.4423C6.92624 12.7137 7.37279 13.3676 7.37279 14.1082V14.1239C7.40725 14.9537 8.5894 14.9531 8.62355 14.1239V14.0957C8.62355 13.3591 9.06679 12.7065 9.75273 12.4331C10.2007 12.2546 10.6185 12.0093 10.9947 11.7041C11.576 11.2322 12.3686 11.1641 13.0138 11.5305L13.0338 11.5418C13.3344 11.7112 13.7189 11.6053 13.8894 11.3049C13.9713 11.1606 13.9921 10.9932 13.9478 10.8335C13.9032 10.673 13.7983 10.5392 13.6524 10.457C13.6517 10.4566 13.6511 10.4563 13.6505 10.4559L13.6118 10.434C12.9721 10.0707 12.6229 9.36776 12.7222 8.64329C12.783 8.19952 12.7815 7.74056 12.7172 7.29726C12.6136 6.58139 12.9706 5.85804 13.6058 5.49732L13.6505 5.47193C13.7984 5.38863 13.9033 5.25493 13.9478 5.09433C13.9921 4.93467 13.9714 4.76729 13.8895 4.62301C13.7189 4.32258 13.3343 4.2168 13.0322 4.38696L12.9792 4.41708C12.3389 4.78067 11.5502 4.71532 10.9697 4.25063C10.6006 3.95511 10.1917 3.71681 9.75451 3.54233C9.0675 3.26819 8.62358 2.61533 8.62358 1.87907V1.86647C8.58921 1.03691 7.40712 1.03694 7.37282 1.86647C7.37282 2.60679 6.92552 3.261 6.23332 3.5331C5.79127 3.70687 5.3779 3.94579 5.00454 4.24319C4.42476 4.70513 3.63725 4.76913 2.99827 4.40626L2.9625 4.38596C2.66206 4.21671 2.27755 4.32255 2.10695 4.62295C2.02502 4.76726 2.00429 4.93464 2.04857 5.0943C2.09313 5.25487 2.19803 5.3886 2.344 5.47084L2.3561 5.47769C2.99558 5.84088 3.35451 6.56922 3.24901 7.28997C3.18307 7.73993 3.18169 8.20581 3.24485 8.65618C3.34635 9.38165 2.9973 10.0859 2.35553 10.4504L2.3459 10.4559C2.19806 10.5392 2.09316 10.6729 2.0486 10.8335C2.00429 10.9932 2.02502 11.1605 2.10695 11.3048C2.27749 11.6052 2.66203 11.7111 2.96425 11.5409C3.24073 11.3839 3.54429 11.3065 3.84656 11.3065ZM7.99817 11.2784C6.18779 11.2784 4.71493 9.80556 4.71493 7.99518C4.89529 3.63951 11.1017 3.64079 11.2814 7.99521C11.2814 9.80556 9.80855 11.2784 7.99817 11.2784ZM7.99817 5.9627C6.87746 5.9627 5.96569 6.87447 5.96569 7.99518C6.07735 10.6915 9.91943 10.6908 10.0307 7.99518C10.0307 6.87444 9.11888 5.9627 7.99817 5.9627Z" fill="#B4BBC3"/>
</g>
<defs>
<clipPath id="clip0_853_45403">
<rect width="16" height="16" fill="white"/>
</clipPath>
</defs>
</svg>
